<svg xmlns="http://www.w3.org/2000/svg" xmlns:xlink="http://www.w3.org/1999/xlink" width="43.495" height="33.729" viewBox="0 0 43.495 33.729"><defs><clipPath id="a"><rect width="43.495" height="33.729" fill="none"/></clipPath></defs><g transform="translate(0 0)"><line x2="0.005" transform="translate(22.189 21.419)" fill="none" stroke="#161615" stroke-linecap="round" stroke-linejoin="round" stroke-width="0.272"/><g transform="translate(0 0)"><g clip-path="url(#a)"><path d="M35.865,3.83A4.732,4.732,0,0,0,33.253.606a8.462,8.462,0,0,0-4.68-.491A9.921,9.921,0,0,0,26.761.53c-.487.16-.962.354-1.446.521a11.609,11.609,0,0,1-3.992.59A11.472,11.472,0,0,1,17.516.96C17.038.786,16.566.6,16.079.451a9.917,9.917,0,0,0-1.846-.37A12.318,12.318,0,0,0,9.761.369C9.239.511,8.733.7,8.226.89a12.625,12.625,0,0,1-1.473.464S4.879,5.521,4.912,5.567A10.455,10.455,0,0,0,7,5.241C7.537,5.1,8.057,4.9,8.58,4.7a11.48,11.48,0,0,1,3.554-.733,11.847,11.847,0,0,1,4.147.491c.539.174,1.063.39,1.6.572a10.239,10.239,0,0,0,2.248.491,12.3,12.3,0,0,0,4.431-.292c1.119-.3,2.165-.818,3.3-1.052,1.1-.227,2.791-.484,3.331.832a2.867,2.867,0,0,1-.34,2.316L23.2,23.743a7.228,7.228,0,0,0-.711,3.01,6.913,6.913,0,0,0,6.692,6.97,5.789,5.789,0,0,1-2.175-7.432c.081-.171,7.7-16.517,7.971-17.1a9.487,9.487,0,0,0,1.039-4.059,5.885,5.885,0,0,0-.151-1.306" transform="translate(-3.613 0)" fill="#57905e"/><path d="M112.213,27.486a3.685,3.685,0,0,0-2.865-2.9,6.068,6.068,0,0,0-1.867-.02,10.254,10.254,0,0,0-1.417.256,16.594,16.594,0,0,1-3.135.627c-.132.008-.537.021-.66.024a13.153,13.153,0,0,1-.681,1.746l-.809,1.735-.178.382a11.5,11.5,0,0,0,2.748-.031c.873-.123,1.707-.4,2.562-.6.145-.035.292-.063.439-.091a.99.99,0,0,1,.6.013c.315.148.263.515.144.78-.193.43-7.254,15.556-7.456,15.989a8.575,8.575,0,0,1-.633,1.185,7.4,7.4,0,0,1-4.326,3.052,4.028,4.028,0,0,1-1.176.124,5.892,5.892,0,0,0,9.368-.69,5.085,5.085,0,0,0,.34-.627c.2-.431,8.479-18.18,8.662-18.572a3.84,3.84,0,0,0,.334-2.386" transform="translate(-68.783 -18.028)" fill="#004c86"/><path d="M24.139,29.84a11.278,11.278,0,0,1,1.5-.218l1.6-3.431c.08-.171.158-.346.228-.524-.5-.027-1.007-.028-1.512-.006a10.884,10.884,0,0,0-3.225.647,14.525,14.525,0,0,1-3.053.864,12.62,12.62,0,0,1-4.381-.157c-.964-.218-1.861-.631-2.8-.92a11.953,11.953,0,0,0-4.131-.431,11.366,11.366,0,0,0-3.385.723,17.15,17.15,0,0,1-1.7.568c-.373.1-1.41.258-1.41.258L0,31.223a11.661,11.661,0,0,0,3.884-.495,27.628,27.628,0,0,1,2.792-.9A12.726,12.726,0,0,1,11,29.71a15.115,15.115,0,0,1,3.036.877,10.614,10.614,0,0,0,3.078.619,12.033,12.033,0,0,0,4.246-.46c.932-.3,1.822-.7,2.781-.907" transform="translate(0 -18.862)" fill="#004c86"/></g></g></g></svg>